<mxfile host="app.diagrams.net" modified="2022-04-24T10:57:33.167Z" agent="5.0 (Macintosh)" etag="CjJEVHP_K6tTEh3Tu1Zv" version="17.4.6" type="github">
  <diagram id="Fz2pEjtqNTdtGRBQMziY" name="Page-1">
    <mxGraphModel dx="2850" dy="1034" grid="1" gridSize="10" guides="1" tooltips="1" connect="1" arrows="1" fold="1" page="0" pageScale="1" pageWidth="827" pageHeight="1169" math="0" shadow="0">
      <root>
        <mxCell id="0" />
        <mxCell id="1" parent="0" />
        <mxCell id="ohLFZsM4meblpCoX3Q22-1" value="" style="shape=image;verticalLabelPosition=bottom;labelBackgroundColor=default;verticalAlign=top;aspect=fixed;imageAspect=0;image=https://payload.cargocollective.com/1/4/137851/3249767/pruebas comp. 1.jpg;" parent="1" vertex="1">
          <mxGeometry x="-800" y="170" width="520" height="390" as="geometry" />
        </mxCell>
        <mxCell id="ohLFZsM4meblpCoX3Q22-3" value="&lt;div align=&quot;left&quot;&gt;https://iohanna.com/Bread-Lab&lt;/div&gt;&lt;div align=&quot;left&quot;&gt;Iohanna Nicenboim&lt;/div&gt;&lt;div align=&quot;left&quot;&gt;Bread Lab 2013&lt;/div&gt;&lt;div align=&quot;left&quot;&gt;Food installation&lt;br&gt;&lt;/div&gt;" style="text;html=1;resizable=0;autosize=1;align=left;verticalAlign=middle;points=[];fillColor=none;strokeColor=none;rounded=0;" parent="1" vertex="1">
          <mxGeometry x="-800" y="570" width="180" height="60" as="geometry" />
        </mxCell>
        <mxCell id="ohLFZsM4meblpCoX3Q22-5" value="" style="shape=image;verticalLabelPosition=bottom;labelBackgroundColor=default;verticalAlign=top;aspect=fixed;imageAspect=0;image=http://interspecifics.cc/work/wp-content/uploads/2017/11/ce_img_0028-1024x576.png;" parent="1" vertex="1">
          <mxGeometry x="-230" y="280" width="520" height="293" as="geometry" />
        </mxCell>
        <mxCell id="ohLFZsM4meblpCoX3Q22-6" value="&lt;div align=&quot;left&quot;&gt;http://interspecifics.cc/work/speculative-communications-2017/&lt;/div&gt;&lt;div align=&quot;left&quot;&gt;Interspecifics&lt;/div&gt;&lt;div align=&quot;left&quot;&gt;Speculative Communications&lt;br&gt;&lt;/div&gt;&lt;div align=&quot;left&quot;&gt;&lt;div&gt;2017&lt;/div&gt;&lt;div&gt;artificial intelligence&lt;/div&gt;&lt;/div&gt;" style="text;html=1;resizable=0;autosize=1;align=left;verticalAlign=middle;points=[];fillColor=none;strokeColor=none;rounded=0;" parent="1" vertex="1">
          <mxGeometry x="-230" y="580" width="350" height="80" as="geometry" />
        </mxCell>
        <mxCell id="ohLFZsM4meblpCoX3Q22-7" value="&lt;div align=&quot;left&quot;&gt;&lt;h1&gt;References I came across during my exchange in Artez&lt;/h1&gt;&lt;/div&gt;&lt;div align=&quot;left&quot;&gt;&lt;h1&gt;02.07.2022 to ???&lt;br&gt;&lt;/h1&gt;&lt;/div&gt;" style="text;html=1;resizable=0;autosize=1;align=left;verticalAlign=middle;points=[];fillColor=none;strokeColor=none;rounded=0;" parent="1" vertex="1">
          <mxGeometry x="-800" y="20" width="650" height="80" as="geometry" />
        </mxCell>
        <mxCell id="ohLFZsM4meblpCoX3Q22-8" value="" style="shape=image;verticalLabelPosition=bottom;labelBackgroundColor=default;verticalAlign=top;aspect=fixed;imageAspect=0;image=https://rlfbckr.io/images/photosextended/rechnender-raum/Rechnender Raum trinitatiskirche koeln.jpg;" parent="1" vertex="1">
          <mxGeometry x="-530" y="720" width="390" height="520" as="geometry" />
        </mxCell>
        <mxCell id="ohLFZsM4meblpCoX3Q22-9" value="&lt;div align=&quot;left&quot;&gt;https://rlfbckr.io/work/rechnender-raum/&lt;/div&gt;&lt;div align=&quot;left&quot;&gt;Ralf Baecker&lt;/div&gt;&lt;div align=&quot;left&quot;&gt;Autonomous System&lt;/div&gt;&lt;div align=&quot;left&quot;&gt;2007&lt;/div&gt;&lt;div align=&quot;left&quot;&gt;Machine installation&lt;br&gt;&lt;/div&gt;" style="text;html=1;resizable=0;autosize=1;align=left;verticalAlign=middle;points=[];fillColor=none;strokeColor=none;rounded=0;" parent="1" vertex="1">
          <mxGeometry x="-530" y="1250" width="220" height="80" as="geometry" />
        </mxCell>
        <mxCell id="ohLFZsM4meblpCoX3Q22-10" value="&lt;a href=&quot;https://www.scott-eaton.com/wp/wp-content/uploads/Entangled_II-Cover.jpg&quot; style=&quot;margin: 0px; padding: 0px; border: 0px none; outline: currentcolor none 0px; font-size: 14px; text-decoration: underline; color: rgb(212, 188, 146); font-family: &amp;quot;georgia&amp;quot;, serif; font-style: normal; font-weight: normal; letter-spacing: normal; text-align: left; text-indent: 0px; text-transform: none; word-spacing: 0px;&quot;&gt;&lt;img src=&quot;https://www.scott-eaton.com/wp/wp-content/uploads/Entangled_II-Cover-425x638.jpg&quot; alt=&quot;Still from Scott Eaton&#39;s AI video artwork - Entangled II&quot; class=&quot;alignleft size-thumbnail wp-image-6369&quot; style=&quot;margin: 0px 10px 5px 0px ; padding: 0px ; border: none ; outline: 0px ; font-size: 14px ; float: left ; max-width: 100%&quot; width=&quot;425&quot;&gt;&lt;/a&gt;&lt;em style=&quot;margin: 0px; padding: 0px; border: 0px none; outline: currentcolor none 0px; font-size: 14px; color: rgb(222, 222, 222); font-family: &amp;quot;georgia&amp;quot;, serif; font-weight: normal; letter-spacing: normal; text-align: left; text-indent: 0px; text-transform: none; word-spacing: 0px; text-decoration: none;&quot;&gt;&lt;/em&gt;&lt;br class=&quot;Apple-interchange-newline&quot;&gt;" style="text;whiteSpace=wrap;html=1;" parent="1" vertex="1">
          <mxGeometry x="560" y="120" width="460" height="30" as="geometry" />
        </mxCell>
        <mxCell id="ohLFZsM4meblpCoX3Q22-11" value="&lt;div align=&quot;left&quot;&gt;https://www.scott-eaton.com&lt;/div&gt;&lt;div align=&quot;left&quot;&gt;Entangled II&lt;/div&gt;&lt;div align=&quot;left&quot;&gt;Scott Eaton&lt;/div&gt;&lt;div align=&quot;left&quot;&gt;2018&lt;br&gt;&lt;/div&gt;" style="text;html=1;resizable=0;autosize=1;align=left;verticalAlign=middle;points=[];fillColor=none;strokeColor=none;rounded=0;" parent="1" vertex="1">
          <mxGeometry x="560" y="770" width="170" height="60" as="geometry" />
        </mxCell>
        <mxCell id="ohLFZsM4meblpCoX3Q22-12" value="" style="shape=image;verticalLabelPosition=bottom;labelBackgroundColor=default;verticalAlign=top;aspect=fixed;imageAspect=0;image=https://upload.wikimedia.org/wikipedia/en/c/c9/Mouchette.png;" parent="1" vertex="1">
          <mxGeometry x="-50" y="680" width="582.88" height="330" as="geometry" />
        </mxCell>
        <mxCell id="ohLFZsM4meblpCoX3Q22-13" value="&lt;div align=&quot;left&quot;&gt;Mouchette.org&lt;/div&gt;&lt;div align=&quot;left&quot;&gt;Martine Neddam&lt;/div&gt;&lt;div align=&quot;left&quot;&gt;1996&lt;/div&gt;&lt;div align=&quot;left&quot;&gt;Interactive website&lt;br&gt;&lt;/div&gt;" style="text;html=1;resizable=0;autosize=1;align=left;verticalAlign=middle;points=[];fillColor=none;strokeColor=none;rounded=0;" parent="1" vertex="1">
          <mxGeometry x="-50" y="1020" width="110" height="60" as="geometry" />
        </mxCell>
        <mxCell id="ohLFZsM4meblpCoX3Q22-16" value="" style="shape=image;verticalLabelPosition=bottom;labelBackgroundColor=default;verticalAlign=top;aspect=fixed;imageAspect=0;image=https://www.arshake.com/wp-content/uploads/2016/11/click-click-cover-1024x612.png;" parent="1" vertex="1">
          <mxGeometry x="-790" y="1340" width="520" height="311" as="geometry" />
        </mxCell>
        <mxCell id="ohLFZsM4meblpCoX3Q22-17" value="&lt;div align=&quot;left&quot;&gt;http://clickclickclick.click/&lt;/div&gt;&lt;div align=&quot;left&quot;&gt;Click Click Click &lt;br&gt;&lt;/div&gt;&lt;div align=&quot;left&quot;&gt;Studio Moniker&lt;/div&gt;&lt;div align=&quot;left&quot;&gt;Website&lt;br&gt;&lt;/div&gt;" style="text;html=1;resizable=0;autosize=1;align=left;verticalAlign=middle;points=[];fillColor=none;strokeColor=none;rounded=0;" parent="1" vertex="1">
          <mxGeometry x="-790" y="1670" width="150" height="60" as="geometry" />
        </mxCell>
        <mxCell id="ohLFZsM4meblpCoX3Q22-18" value="" style="shape=image;verticalLabelPosition=bottom;labelBackgroundColor=default;verticalAlign=top;aspect=fixed;imageAspect=0;image=https://www.newrafael.com/img/sitethumbs/fearofchoice-200.png;" parent="1" vertex="1">
          <mxGeometry x="-50" y="1104" width="511.63" height="330" as="geometry" />
        </mxCell>
        <mxCell id="ohLFZsM4meblpCoX3Q22-19" value="&lt;div align=&quot;left&quot;&gt;http://www.fearofchoice.com/&lt;/div&gt;&lt;div align=&quot;left&quot;&gt;Fear of choice&lt;/div&gt;&lt;div align=&quot;left&quot;&gt;Rafael Rozendalen&lt;/div&gt;&lt;div align=&quot;left&quot;&gt;2019&lt;br&gt;&lt;/div&gt;" style="text;html=1;resizable=0;autosize=1;align=left;verticalAlign=middle;points=[];fillColor=none;strokeColor=none;rounded=0;" parent="1" vertex="1">
          <mxGeometry x="-50" y="1454" width="170" height="60" as="geometry" />
        </mxCell>
        <mxCell id="ohLFZsM4meblpCoX3Q22-26" value="" style="shape=image;verticalLabelPosition=bottom;labelBackgroundColor=default;verticalAlign=top;aspect=fixed;imageAspect=0;image=https://artlogic-res.cloudinary.com/w_886,h_665,c_limit,f_auto,fl_lossy/artlogicstorage/annetgelink/images/view/963605c243c81b6dc591f232290f466020740cec/annetgelinkgallery-sarah-van-sonsbeeck-one-cubic-meter-of-broken-silence-2009.jpg;" parent="1" vertex="1">
          <mxGeometry x="560" y="870" width="346" height="520" as="geometry" />
        </mxCell>
        <mxCell id="ohLFZsM4meblpCoX3Q22-27" value="&lt;div align=&quot;left&quot;&gt;https://www.sarahvansonsbeeck.com/#/sculpture/&lt;/div&gt;&lt;div align=&quot;left&quot;&gt;Once cubic meter of silence&lt;/div&gt;&lt;div align=&quot;left&quot;&gt;Saran van Sonsbeek&lt;/div&gt;&lt;div align=&quot;left&quot;&gt;2009&lt;br&gt;&lt;/div&gt;" style="text;html=1;resizable=0;autosize=1;align=left;verticalAlign=middle;points=[];fillColor=none;strokeColor=none;rounded=0;" parent="1" vertex="1">
          <mxGeometry x="560" y="1410" width="280" height="60" as="geometry" />
        </mxCell>
        <mxCell id="9F3Q1n5DnLFxMaBrRxdZ-1" value="" style="shape=image;verticalLabelPosition=bottom;labelBackgroundColor=default;verticalAlign=top;aspect=fixed;imageAspect=0;image=https://www.technofle.sh/img/C_ROOT0082-side_SimoneNiquille-Technoflesh.jpg;" parent="1" vertex="1">
          <mxGeometry x="960" y="790" width="520" height="384" as="geometry" />
        </mxCell>
        <mxCell id="9F3Q1n5DnLFxMaBrRxdZ-2" value="&lt;div align=&quot;left&quot;&gt;https://www.technofle.sh/&lt;/div&gt;Simone C Niquille" style="text;html=1;resizable=0;autosize=1;align=left;verticalAlign=middle;points=[];fillColor=none;strokeColor=none;rounded=0;" parent="1" vertex="1">
          <mxGeometry x="960" y="1180" width="150" height="30" as="geometry" />
        </mxCell>
        <mxCell id="9F3Q1n5DnLFxMaBrRxdZ-3" value="" style="shape=image;verticalLabelPosition=bottom;labelBackgroundColor=default;verticalAlign=top;aspect=fixed;imageAspect=0;image=https://verbekefoundation.com/wp-content/uploads/2021/06/Luca-Vanello_air_01.jpg;" parent="1" vertex="1">
          <mxGeometry x="730" y="1490" width="520" height="347" as="geometry" />
        </mxCell>
        <mxCell id="9F3Q1n5DnLFxMaBrRxdZ-4" value="&lt;div align=&quot;left&quot;&gt;https://verbekefoundation.com/en/tentoonstellingen/now-on-view/&lt;/div&gt;Luca Vanello" style="text;html=1;resizable=0;autosize=1;align=left;verticalAlign=middle;points=[];fillColor=none;strokeColor=none;rounded=0;" parent="1" vertex="1">
          <mxGeometry x="730" y="1850" width="360" height="30" as="geometry" />
        </mxCell>
        <mxCell id="9F3Q1n5DnLFxMaBrRxdZ-5" value="https://constantdullaart.com/☔☁☁☁☠⛔☁☁☁⏳☔⚠☁☁⛔⏳☠������✊������✊/" style="text;whiteSpace=wrap;html=1;" parent="1" vertex="1">
          <mxGeometry x="1690" y="440" width="390" height="30" as="geometry" />
        </mxCell>
        <mxCell id="9F3Q1n5DnLFxMaBrRxdZ-6" value="&lt;div align=&quot;left&quot;&gt;&lt;h1&gt;Lectures / conferences&lt;br&gt;&lt;/h1&gt;&lt;/div&gt;" style="text;html=1;resizable=0;autosize=1;align=left;verticalAlign=middle;points=[];fillColor=none;strokeColor=none;rounded=0;" parent="1" vertex="1">
          <mxGeometry x="1690" y="35" width="280" height="50" as="geometry" />
        </mxCell>
        <mxCell id="9F3Q1n5DnLFxMaBrRxdZ-7" value="" style="shape=image;verticalLabelPosition=bottom;labelBackgroundColor=default;verticalAlign=top;aspect=fixed;imageAspect=0;image=https://d2u3kfwd92fzu7.cloudfront.net/catalog/artwork/1461749/1413884550.3012_117_o.jpg;" parent="1" vertex="1">
          <mxGeometry x="1690" y="100" width="520" height="329" as="geometry" />
        </mxCell>
        <mxCell id="9F3Q1n5DnLFxMaBrRxdZ-8" value="" style="shape=image;verticalLabelPosition=bottom;labelBackgroundColor=default;verticalAlign=top;aspect=fixed;imageAspect=0;image=http://www.joostrekveld.net/wp/wp-content/uploads/2018/02/nr57still04-494x277.jpg;" parent="1" vertex="1">
          <mxGeometry x="1690" y="481.5" width="494" height="277" as="geometry" />
        </mxCell>
        <mxCell id="9F3Q1n5DnLFxMaBrRxdZ-9" value="&lt;div&gt;http://www.joostrekveld.net/?p=2070&lt;br&gt;&lt;/div&gt;&lt;div&gt;#57&lt;br&gt;&lt;/div&gt;&lt;div&gt;J&lt;span class=&quot;yKMVIe&quot;&gt;oost Rekveld&lt;/span&gt;&lt;/div&gt;" style="text;whiteSpace=wrap;html=1;" parent="1" vertex="1">
          <mxGeometry x="1690" y="770" width="220" height="80" as="geometry" />
        </mxCell>
        <mxCell id="9F3Q1n5DnLFxMaBrRxdZ-10" value="" style="shape=image;verticalLabelPosition=bottom;labelBackgroundColor=default;verticalAlign=top;aspect=fixed;imageAspect=0;image=https://richardvijgen.nl/images/4/1/5/6/5/415658fec9f301241cf4f4376602c13e4a1a46fd-2.jpeg;" parent="1" vertex="1">
          <mxGeometry x="1690" y="833" width="520" height="347" as="geometry" />
        </mxCell>
        <UserObject label="&lt;div&gt;https://richardvijgen.nl/#architectureofradio&lt;/div&gt;&lt;div&gt;Architecture of radio&lt;/div&gt;&lt;div&gt;Richard Vijgen &lt;br&gt;&lt;/div&gt;&lt;div&gt;2016&lt;br&gt;&lt;/div&gt;" link="https://richardvijgen.nl/#architectureofradio" id="9F3Q1n5DnLFxMaBrRxdZ-11">
          <mxCell style="text;whiteSpace=wrap;html=1;" parent="1" vertex="1">
            <mxGeometry x="1690" y="1190" width="250" height="130" as="geometry" />
          </mxCell>
        </UserObject>
        <mxCell id="bvpzkGALg0nAZY-j6K4W-2" value="" style="shape=image;verticalLabelPosition=bottom;labelBackgroundColor=default;verticalAlign=top;aspect=fixed;imageAspect=0;image=https://www.kanno.so/wp-content/uploads/2021/05/LMWS3.jpg;" parent="1" vertex="1">
          <mxGeometry x="-790" y="1750" width="520" height="387" as="geometry" />
        </mxCell>
        <mxCell id="bvpzkGALg0nAZY-j6K4W-3" value="&lt;div&gt;&lt;span class=&quot;bold&quot;&gt;https://www.kanno.so/project/lasermice_workshop&lt;br&gt;&lt;/span&gt;&lt;/div&gt;&lt;div&gt;&lt;span class=&quot;bold&quot;&gt;Lasermice workshop&lt;/span&gt;&lt;/div&gt;&lt;div&gt;&lt;span class=&quot;bold&quot;&gt;So Kanno&lt;br&gt;&lt;/span&gt;&lt;/div&gt;" style="text;whiteSpace=wrap;html=1;" parent="1" vertex="1">
          <mxGeometry x="-790" y="2150" width="160" height="70" as="geometry" />
        </mxCell>
        <mxCell id="GZIhcRstagoRDVptMjbm-1" value="&lt;div align=&quot;left&quot;&gt;&lt;h1&gt;Museums/ exhibitions&lt;br&gt;&lt;/h1&gt;&lt;/div&gt;" style="text;html=1;resizable=0;autosize=1;align=left;verticalAlign=middle;points=[];fillColor=none;strokeColor=none;rounded=0;" vertex="1" parent="1">
          <mxGeometry x="2250" y="35" width="270" height="50" as="geometry" />
        </mxCell>
        <mxCell id="GZIhcRstagoRDVptMjbm-2" value="" style="shape=image;verticalLabelPosition=bottom;labelBackgroundColor=default;verticalAlign=top;aspect=fixed;imageAspect=0;image=https://nxtmuseum.com/content/uploads/2020/06/04_Habitat-768x577.jpg;" vertex="1" parent="1">
          <mxGeometry x="2250" y="100" width="520" height="391" as="geometry" />
        </mxCell>
        <mxCell id="GZIhcRstagoRDVptMjbm-3" value="&lt;div&gt;Habitat&lt;/div&gt;&lt;div&gt;2020&lt;/div&gt;&lt;div&gt;Heleen Blanken&lt;/div&gt;&lt;div&gt;(seen Nxt Museum - Shifting Proximities&lt;br&gt;&lt;/div&gt;" style="text;whiteSpace=wrap;html=1;" vertex="1" parent="1">
          <mxGeometry x="2250" y="510" width="220" height="80" as="geometry" />
        </mxCell>
        <mxCell id="GZIhcRstagoRDVptMjbm-4" value="" style="shape=image;verticalLabelPosition=bottom;labelBackgroundColor=default;verticalAlign=top;aspect=fixed;imageAspect=0;image=https://payload.cargocollective.com/1/11/353467/14359514/Aurae---Voyez-Vous-Vinciane-Lebrun--2967_1000.jpg;" vertex="1" parent="1">
          <mxGeometry x="2250" y="600" width="520" height="346" as="geometry" />
        </mxCell>
        <mxCell id="GZIhcRstagoRDVptMjbm-5" value="&lt;div&gt;Aurae &lt;br&gt;&lt;/div&gt;&lt;div&gt;2022&lt;/div&gt;&lt;div&gt;Sabrina Ratté - solo exhibition &lt;br&gt;&lt;/div&gt;&lt;div&gt;Gaité Lyrique, Paris&lt;/div&gt;&lt;div&gt;&lt;br&gt;&lt;/div&gt;" style="text;whiteSpace=wrap;html=1;" vertex="1" parent="1">
          <mxGeometry x="2250" y="960" width="220" height="80" as="geometry" />
        </mxCell>
        <mxCell id="GZIhcRstagoRDVptMjbm-6" value="" style="shape=image;verticalLabelPosition=bottom;labelBackgroundColor=default;verticalAlign=top;aspect=fixed;imageAspect=0;image=http://roofvogel.org/wp-content/uploads/2017/06/nummervier_03.jpg;" vertex="1" parent="1">
          <mxGeometry x="2250" y="1050" width="520" height="293" as="geometry" />
        </mxCell>
        <mxCell id="GZIhcRstagoRDVptMjbm-7" value="&lt;div&gt;Nummer vier&lt;/div&gt;&lt;div&gt;2005&lt;/div&gt;&lt;div&gt;Guido van der Werve&lt;/div&gt;&lt;div&gt;(seen Eye Museum)&lt;br&gt;&lt;/div&gt;" style="text;whiteSpace=wrap;html=1;" vertex="1" parent="1">
          <mxGeometry x="2250" y="1354" width="220" height="80" as="geometry" />
        </mxCell>
      </root>
    </mxGraphModel>
  </diagram>
</mxfile>
